<?xml version="1.0" encoding="UTF-8" standalone="no"?>
<!-- Generator: Adobe Illustrator 19.0.0, SVG Export Plug-In . SVG Version: 6.00 Build 0)  -->

<svg
   xmlns:dc="http://purl.org/dc/elements/1.1/"
   xmlns:cc="http://creativecommons.org/ns#"
   xmlns:rdf="http://www.w3.org/1999/02/22-rdf-syntax-ns#"
   xmlns:svg="http://www.w3.org/2000/svg"
   xmlns="http://www.w3.org/2000/svg"
   xmlns:sodipodi="http://sodipodi.sourceforge.net/DTD/sodipodi-0.dtd"
   xmlns:inkscape="http://www.inkscape.org/namespaces/inkscape"
   version="1.1"
   id="Layer_1"
   x="0px"
   y="0px"
   viewBox="0 0 330 330"
   style="enable-background:new 0 0 330 330;"
   xml:space="preserve"
   inkscape:version="0.91 r13725"
   sodipodi:docname="search.svg"
   inkscape:export-filename="/home/raphaellutz/Documents/Unige/Info III/Pinfo/PInfo2/web-ui/src/assets/search.png"
   inkscape:export-xdpi="180"
   inkscape:export-ydpi="180"><metadata
     id="metadata40"><rdf:RDF><cc:Work
         rdf:about=""><dc:format>image/svg+xml</dc:format><dc:type
           rdf:resource="http://purl.org/dc/dcmitype/StillImage" /><dc:title></dc:title></cc:Work></rdf:RDF></metadata><defs
     id="defs38" /><sodipodi:namedview
     pagecolor="#ffffff"
     bordercolor="#666666"
     borderopacity="1"
     objecttolerance="10"
     gridtolerance="10"
     guidetolerance="10"
     inkscape:pageopacity="0"
     inkscape:pageshadow="2"
     inkscape:window-width="1334"
     inkscape:window-height="747"
     id="namedview36"
     showgrid="false"
     inkscape:zoom="1.430303"
     inkscape:cx="104.53476"
     inkscape:cy="143.89487"
     inkscape:window-x="32"
     inkscape:window-y="21"
     inkscape:window-maximized="1"
     inkscape:current-layer="XMLID_17_" /><g
     id="XMLID_17_"><path
       id="XMLID_18_"
       d="M125.005,165.008c-22.058,0-40.003-17.945-40.003-40.002c0-8.284-6.716-15-15-15c-8.284,0-15,6.716-15,15   c0,38.6,31.403,70.002,70.003,70.002c8.284,0,15-6.716,15-15C140.005,171.724,133.289,165.008,125.005,165.008z"
       style="fill:#ffffff" /><path
       id="XMLID_19_"
       d="M325.606,304.394L223.329,202.117c16.706-21.256,26.682-48.04,26.682-77.111   C250.011,56.077,193.934,0,125.005,0C56.077,0,0,56.077,0,125.005C0,193.933,56.077,250.01,125.005,250.01   c29.07,0,55.855-9.975,77.111-26.681l102.278,102.277C307.322,328.536,311.161,330,315,330c3.839,0,7.678-1.464,10.606-4.394   C331.464,319.749,331.464,310.251,325.606,304.394z M30,125.005C30,72.619,72.619,30,125.005,30   c52.386,0,95.006,42.619,95.006,95.005c0,52.386-42.62,95.005-95.006,95.005C72.619,220.01,30,177.391,30,125.005z"
       style="fill:#ffffff" /></g><g
     id="g6" /><g
     id="g8" /><g
     id="g10" /><g
     id="g12" /><g
     id="g14" /><g
     id="g16" /><g
     id="g18" /><g
     id="g20" /><g
     id="g22" /><g
     id="g24" /><g
     id="g26" /><g
     id="g28" /><g
     id="g30" /><g
     id="g32" /><g
     id="g34" /></svg>